# xmcd CD database file
#
# Track frame offsets:
#	150
#	16137
#	33412
#	50452
#	68812
#	86270
#	107127
#	120043
#	135250
#	156577
#	174115
#	189199
#
# Disc length: 2807 seconds
#
# Revision: 0
# Processed by: cddbd v1.5.2PL0 Copyright (c) Steve Scherf et al.
# Submitted via: CDex 1.51
#
DISCID=840af50c
DTITLE=Chicago Blues Angels - Lit Up!
DYEAR=2006
DGENRE=Blues
TTITLE0=Uncle Freddy
TTITLE1=Meet Me Halfway
TTITLE2=She´s The Devil
TTITLE3=Double-Eyed Whammy
TTITLE4=This Should Go Forever
TTITLE5=What´s It Gonna Take
TTITLE6=Think
TTITLE7=Crazy Woman Blues
TTITLE8=Leave You Alone
TTITLE9=Another Day, Another Dollar
TTITLE10=Have Love, Will Travel
TTITLE11=Hungover
EXTD=YEAR: 2006
EXTT0=
EXTT1=
EXTT2=
EXTT3=
EXTT4=
EXTT5=
EXTT6=
EXTT7=
EXTT8=
EXTT9=
EXTT10=
EXTT11=
PLAYORDER=
